<mxfile host="Electron" agent="Mozilla/5.0 (Windows NT 10.0; Win64; x64) AppleWebKit/537.36 (KHTML, like Gecko) draw.io/24.7.8 Chrome/128.0.6613.36 Electron/32.0.1 Safari/537.36" version="24.7.8">
  <diagram name="Side-1" id="v7aNZGcVQqg8jcTbbySO">
    <mxGraphModel dx="1750" dy="1048" grid="1" gridSize="10" guides="1" tooltips="1" connect="1" arrows="1" fold="1" page="1" pageScale="1" pageWidth="827" pageHeight="1169" math="0" shadow="0">
      <root>
        <mxCell id="0" />
        <mxCell id="1" parent="0" />
        <mxCell id="Jo2eLr0nHcPGZElzcF8N-1" value="" style="endArrow=none;html=1;rounded=0;exitX=0;exitY=0.5;exitDx=0;exitDy=0;strokeWidth=3;" edge="1" parent="1">
          <mxGeometry width="50" height="50" relative="1" as="geometry">
            <mxPoint x="199.99999999999977" y="360" as="sourcePoint" />
            <mxPoint x="200" y="360" as="targetPoint" />
          </mxGeometry>
        </mxCell>
        <mxCell id="Jo2eLr0nHcPGZElzcF8N-2" value="Gruppe kontrakt" style="rounded=1;whiteSpace=wrap;html=1;fillColor=#666699;strokeColor=#23445d;" vertex="1" parent="1">
          <mxGeometry x="70" y="400" width="120" height="60" as="geometry" />
        </mxCell>
        <mxCell id="Jo2eLr0nHcPGZElzcF8N-3" value="Planlægning" style="rounded=1;whiteSpace=wrap;html=1;fillColor=#FF3333;fontColor=#000000;strokeColor=#BD7000;fontStyle=1" vertex="1" parent="1">
          <mxGeometry x="160" y="200" width="120" height="60" as="geometry" />
        </mxCell>
        <mxCell id="Jo2eLr0nHcPGZElzcF8N-4" value="WBS" style="rounded=1;whiteSpace=wrap;html=1;fillColor=#666699;strokeColor=#23445d;" vertex="1" parent="1">
          <mxGeometry x="250" y="400" width="120" height="60" as="geometry" />
        </mxCell>
        <mxCell id="Jo2eLr0nHcPGZElzcF8N-5" value="Backlog/User Stories" style="rounded=1;whiteSpace=wrap;html=1;fillColor=#666699;strokeColor=#23445d;" vertex="1" parent="1">
          <mxGeometry x="250" y="480" width="120" height="60" as="geometry" />
        </mxCell>
        <mxCell id="Jo2eLr0nHcPGZElzcF8N-6" value="Gantt-skema" style="rounded=1;whiteSpace=wrap;html=1;fillColor=#666699;strokeColor=#23445d;" vertex="1" parent="1">
          <mxGeometry x="250" y="560" width="120" height="60" as="geometry" />
        </mxCell>
        <mxCell id="Jo2eLr0nHcPGZElzcF8N-7" value="Udførsel" style="rounded=1;whiteSpace=wrap;html=1;fillColor=#FF3333;fontColor=#000000;strokeColor=#BD7000;fontStyle=1" vertex="1" parent="1">
          <mxGeometry x="520" y="200" width="120" height="60" as="geometry" />
        </mxCell>
        <mxCell id="Jo2eLr0nHcPGZElzcF8N-8" value="Rapport tjek" style="rounded=1;whiteSpace=wrap;html=1;fillColor=#66CC00;strokeColor=#36393d;" vertex="1" parent="1">
          <mxGeometry x="1150" y="310" width="120" height="60" as="geometry" />
        </mxCell>
        <mxCell id="Jo2eLr0nHcPGZElzcF8N-9" value="Rapport" style="rounded=1;whiteSpace=wrap;html=1;fillColor=#66CC00;strokeColor=#36393d;" vertex="1" parent="1">
          <mxGeometry x="430" y="310" width="120" height="60" as="geometry" />
        </mxCell>
        <mxCell id="Jo2eLr0nHcPGZElzcF8N-10" value="Kode tjek" style="rounded=1;whiteSpace=wrap;html=1;fillColor=#66CC00;strokeColor=#36393d;" vertex="1" parent="1">
          <mxGeometry x="1330" y="310" width="120" height="60" as="geometry" />
        </mxCell>
        <mxCell id="Jo2eLr0nHcPGZElzcF8N-11" value="Gennemgang af rapport" style="rounded=1;whiteSpace=wrap;html=1;fillColor=#666699;strokeColor=#23445d;" vertex="1" parent="1">
          <mxGeometry x="1150" y="400" width="120" height="60" as="geometry" />
        </mxCell>
        <mxCell id="Jo2eLr0nHcPGZElzcF8N-12" value="Undersøg fejl og problemer" style="rounded=1;whiteSpace=wrap;html=1;fillColor=#666699;strokeColor=#23445d;" vertex="1" parent="1">
          <mxGeometry x="1150" y="480" width="120" height="60" as="geometry" />
        </mxCell>
        <mxCell id="Jo2eLr0nHcPGZElzcF8N-13" value="Læs korrektur" style="rounded=1;whiteSpace=wrap;html=1;fillColor=#666699;strokeColor=#23445d;" vertex="1" parent="1">
          <mxGeometry x="1150" y="560" width="120" height="60" as="geometry" />
        </mxCell>
        <mxCell id="Jo2eLr0nHcPGZElzcF8N-14" value="Gennemgang af kode, tjek for fejl" style="rounded=1;whiteSpace=wrap;html=1;fillColor=#666699;strokeColor=#23445d;" vertex="1" parent="1">
          <mxGeometry x="1330" y="400" width="120" height="60" as="geometry" />
        </mxCell>
        <mxCell id="Jo2eLr0nHcPGZElzcF8N-15" value="Undersøg fejl og problemer" style="rounded=1;whiteSpace=wrap;html=1;fillColor=#666699;strokeColor=#23445d;" vertex="1" parent="1">
          <mxGeometry x="1330" y="480" width="120" height="60" as="geometry" />
        </mxCell>
        <mxCell id="Jo2eLr0nHcPGZElzcF8N-16" value="Læs korrektur" style="rounded=1;whiteSpace=wrap;html=1;fillColor=#666699;strokeColor=#23445d;" vertex="1" parent="1">
          <mxGeometry x="1330" y="560" width="120" height="60" as="geometry" />
        </mxCell>
        <mxCell id="Jo2eLr0nHcPGZElzcF8N-17" value="Lav pdf" style="rounded=1;whiteSpace=wrap;html=1;fillColor=#66CC00;strokeColor=#36393d;" vertex="1" parent="1">
          <mxGeometry x="1510" y="310" width="120" height="60" as="geometry" />
        </mxCell>
        <mxCell id="Jo2eLr0nHcPGZElzcF8N-18" value="Gruppen afleverer" style="rounded=1;whiteSpace=wrap;html=1;fillColor=#66CC00;strokeColor=#36393d;" vertex="1" parent="1">
          <mxGeometry x="1690" y="310" width="120" height="60" as="geometry" />
        </mxCell>
        <mxCell id="Jo2eLr0nHcPGZElzcF8N-19" value="påbegyndt skrivning" style="rounded=1;whiteSpace=wrap;html=1;fillColor=#666699;strokeColor=#23445d;" vertex="1" parent="1">
          <mxGeometry x="430" y="400" width="120" height="60" as="geometry" />
        </mxCell>
        <mxCell id="Jo2eLr0nHcPGZElzcF8N-20" value="Kodning" style="rounded=1;whiteSpace=wrap;html=1;fillColor=#66CC00;strokeColor=#36393d;" vertex="1" parent="1">
          <mxGeometry x="610" y="310" width="120" height="60" as="geometry" />
        </mxCell>
        <mxCell id="Jo2eLr0nHcPGZElzcF8N-21" value="Lav(Opsætning af) Arkitektur" style="rounded=1;whiteSpace=wrap;html=1;fillColor=#666699;strokeColor=#23445d;" vertex="1" parent="1">
          <mxGeometry x="610" y="400" width="120" height="60" as="geometry" />
        </mxCell>
        <mxCell id="Jo2eLr0nHcPGZElzcF8N-22" value="Design Database" style="rounded=1;whiteSpace=wrap;html=1;fillColor=#666699;strokeColor=#23445d;" vertex="1" parent="1">
          <mxGeometry x="610" y="480" width="120" height="60" as="geometry" />
        </mxCell>
        <mxCell id="Jo2eLr0nHcPGZElzcF8N-23" value="Opsummering" style="rounded=1;whiteSpace=wrap;html=1;fillColor=#FF3333;strokeColor=#BD7000;fontColor=#000000;fontStyle=1" vertex="1" parent="1">
          <mxGeometry x="880" y="200" width="120" height="60" as="geometry" />
        </mxCell>
        <mxCell id="Jo2eLr0nHcPGZElzcF8N-24" value="Rapport tjek" style="rounded=1;whiteSpace=wrap;html=1;fillColor=#66CC00;strokeColor=#36393d;" vertex="1" parent="1">
          <mxGeometry x="790" y="310" width="120" height="60" as="geometry" />
        </mxCell>
        <mxCell id="Jo2eLr0nHcPGZElzcF8N-25" value="Kode tjek" style="rounded=1;whiteSpace=wrap;html=1;fillColor=#66CC00;strokeColor=#36393d;" vertex="1" parent="1">
          <mxGeometry x="970" y="310" width="120" height="60" as="geometry" />
        </mxCell>
        <mxCell id="Jo2eLr0nHcPGZElzcF8N-26" value="Finjustér" style="rounded=1;whiteSpace=wrap;html=1;fillColor=#666699;strokeColor=#23445d;" vertex="1" parent="1">
          <mxGeometry x="970" y="400" width="120" height="60" as="geometry" />
        </mxCell>
        <mxCell id="Jo2eLr0nHcPGZElzcF8N-27" value="Tilføjelser" style="rounded=1;whiteSpace=wrap;html=1;fillColor=#666699;strokeColor=#23445d;" vertex="1" parent="1">
          <mxGeometry x="970" y="480" width="120" height="60" as="geometry" />
        </mxCell>
        <mxCell id="Jo2eLr0nHcPGZElzcF8N-28" value="Gruppe samtale" style="rounded=1;whiteSpace=wrap;html=1;fillColor=#666699;strokeColor=#23445d;" vertex="1" parent="1">
          <mxGeometry x="970" y="560" width="120" height="60" as="geometry" />
        </mxCell>
        <mxCell id="Jo2eLr0nHcPGZElzcF8N-29" value="Kontrol" style="rounded=1;whiteSpace=wrap;html=1;fillColor=#FF3333;fontColor=#000000;strokeColor=#BD7000;fontStyle=1" vertex="1" parent="1">
          <mxGeometry x="1241" y="200" width="120" height="60" as="geometry" />
        </mxCell>
        <mxCell id="Jo2eLr0nHcPGZElzcF8N-30" value="Aflevere" style="rounded=1;whiteSpace=wrap;html=1;fillColor=#FF3333;fontColor=#000000;strokeColor=#BD7000;fontStyle=1" vertex="1" parent="1">
          <mxGeometry x="1600" y="200" width="120" height="60" as="geometry" />
        </mxCell>
        <mxCell id="Jo2eLr0nHcPGZElzcF8N-31" value="&lt;font color=&quot;#000000&quot;&gt;&lt;span style=&quot;font-size: 23px;&quot;&gt;&lt;b&gt;Projekt MyTunes&lt;/b&gt;&lt;/span&gt;&lt;/font&gt;" style="rounded=1;whiteSpace=wrap;html=1;fontStyle=0;fillColor=#dae8fc;strokeColor=#6c8ebf;" vertex="1" parent="1">
          <mxGeometry x="750.5" y="20" width="379" height="60" as="geometry" />
        </mxCell>
        <mxCell id="Jo2eLr0nHcPGZElzcF8N-32" value="" style="endArrow=none;html=1;rounded=0;entryX=0.5;entryY=1;entryDx=0;entryDy=0;strokeWidth=4;" edge="1" parent="1" target="Jo2eLr0nHcPGZElzcF8N-31">
          <mxGeometry width="50" height="50" relative="1" as="geometry">
            <mxPoint x="940" y="170" as="sourcePoint" />
            <mxPoint x="1026.5" y="70" as="targetPoint" />
          </mxGeometry>
        </mxCell>
        <mxCell id="Jo2eLr0nHcPGZElzcF8N-33" value="" style="endArrow=none;html=1;rounded=0;strokeWidth=5;" edge="1" parent="1">
          <mxGeometry width="50" height="50" relative="1" as="geometry">
            <mxPoint x="220" y="160" as="sourcePoint" />
            <mxPoint x="1660" y="160" as="targetPoint" />
          </mxGeometry>
        </mxCell>
        <mxCell id="Jo2eLr0nHcPGZElzcF8N-34" value="" style="endArrow=none;html=1;rounded=0;exitX=0.5;exitY=0;exitDx=0;exitDy=0;strokeWidth=3;" edge="1" parent="1" source="Jo2eLr0nHcPGZElzcF8N-7">
          <mxGeometry width="50" height="50" relative="1" as="geometry">
            <mxPoint x="590" y="190" as="sourcePoint" />
            <mxPoint x="580" y="160" as="targetPoint" />
          </mxGeometry>
        </mxCell>
        <mxCell id="Jo2eLr0nHcPGZElzcF8N-35" value="" style="endArrow=none;html=1;rounded=0;entryX=0.5;entryY=0;entryDx=0;entryDy=0;strokeWidth=3;" edge="1" parent="1" target="Jo2eLr0nHcPGZElzcF8N-23">
          <mxGeometry width="50" height="50" relative="1" as="geometry">
            <mxPoint x="940" y="160" as="sourcePoint" />
            <mxPoint x="900" y="180" as="targetPoint" />
          </mxGeometry>
        </mxCell>
        <mxCell id="Jo2eLr0nHcPGZElzcF8N-36" value="" style="endArrow=none;html=1;rounded=0;exitX=0.5;exitY=0;exitDx=0;exitDy=0;strokeWidth=3;" edge="1" parent="1" source="Jo2eLr0nHcPGZElzcF8N-29">
          <mxGeometry width="50" height="50" relative="1" as="geometry">
            <mxPoint x="1300" y="230" as="sourcePoint" />
            <mxPoint x="1300" y="160" as="targetPoint" />
            <Array as="points" />
          </mxGeometry>
        </mxCell>
        <mxCell id="Jo2eLr0nHcPGZElzcF8N-37" value="" style="endArrow=none;html=1;rounded=0;entryX=0.5;entryY=0;entryDx=0;entryDy=0;strokeWidth=3;" edge="1" parent="1" target="Jo2eLr0nHcPGZElzcF8N-30">
          <mxGeometry width="50" height="50" relative="1" as="geometry">
            <mxPoint x="1660" y="160" as="sourcePoint" />
            <mxPoint x="1880" y="170" as="targetPoint" />
          </mxGeometry>
        </mxCell>
        <mxCell id="Jo2eLr0nHcPGZElzcF8N-38" value="" style="endArrow=none;html=1;rounded=0;exitX=0.5;exitY=0;exitDx=0;exitDy=0;strokeWidth=3;" edge="1" parent="1" source="Jo2eLr0nHcPGZElzcF8N-3">
          <mxGeometry width="50" height="50" relative="1" as="geometry">
            <mxPoint x="90" y="210" as="sourcePoint" />
            <mxPoint x="220" y="160" as="targetPoint" />
          </mxGeometry>
        </mxCell>
        <mxCell id="Jo2eLr0nHcPGZElzcF8N-39" value="Opstart" style="rounded=1;whiteSpace=wrap;html=1;fillColor=#66CC00;strokeColor=#36393d;" vertex="1" parent="1">
          <mxGeometry x="70" y="310" width="120" height="60" as="geometry" />
        </mxCell>
        <mxCell id="Jo2eLr0nHcPGZElzcF8N-40" value="Planlægning" style="rounded=1;whiteSpace=wrap;html=1;fillColor=#66CC00;strokeColor=#36393d;" vertex="1" parent="1">
          <mxGeometry x="250" y="310" width="120" height="60" as="geometry" />
        </mxCell>
        <mxCell id="Jo2eLr0nHcPGZElzcF8N-41" value="" style="endArrow=none;html=1;rounded=0;entryX=0.5;entryY=1;entryDx=0;entryDy=0;strokeWidth=3;" edge="1" parent="1" target="Jo2eLr0nHcPGZElzcF8N-3">
          <mxGeometry width="50" height="50" relative="1" as="geometry">
            <mxPoint x="220" y="280" as="sourcePoint" />
            <mxPoint x="250" y="280" as="targetPoint" />
          </mxGeometry>
        </mxCell>
        <mxCell id="Jo2eLr0nHcPGZElzcF8N-42" value="" style="endArrow=none;html=1;rounded=0;strokeWidth=3;" edge="1" parent="1">
          <mxGeometry width="50" height="50" relative="1" as="geometry">
            <mxPoint x="130" y="280" as="sourcePoint" />
            <mxPoint x="310" y="280" as="targetPoint" />
          </mxGeometry>
        </mxCell>
        <mxCell id="Jo2eLr0nHcPGZElzcF8N-43" value="" style="endArrow=none;html=1;rounded=0;exitX=0.5;exitY=0;exitDx=0;exitDy=0;strokeWidth=3;" edge="1" parent="1" source="Jo2eLr0nHcPGZElzcF8N-39">
          <mxGeometry width="50" height="50" relative="1" as="geometry">
            <mxPoint x="80" y="330" as="sourcePoint" />
            <mxPoint x="130" y="280" as="targetPoint" />
          </mxGeometry>
        </mxCell>
        <mxCell id="Jo2eLr0nHcPGZElzcF8N-44" value="" style="endArrow=none;html=1;rounded=0;exitX=0.5;exitY=0;exitDx=0;exitDy=0;strokeWidth=3;" edge="1" parent="1" source="Jo2eLr0nHcPGZElzcF8N-40">
          <mxGeometry width="50" height="50" relative="1" as="geometry">
            <mxPoint x="270" y="330" as="sourcePoint" />
            <mxPoint x="310" y="280" as="targetPoint" />
          </mxGeometry>
        </mxCell>
        <mxCell id="Jo2eLr0nHcPGZElzcF8N-45" value="" style="endArrow=none;html=1;rounded=0;entryX=0.5;entryY=1;entryDx=0;entryDy=0;strokeWidth=3;" edge="1" parent="1" target="Jo2eLr0nHcPGZElzcF8N-7">
          <mxGeometry width="50" height="50" relative="1" as="geometry">
            <mxPoint x="580" y="280" as="sourcePoint" />
            <mxPoint x="610" y="280" as="targetPoint" />
          </mxGeometry>
        </mxCell>
        <mxCell id="Jo2eLr0nHcPGZElzcF8N-46" value="" style="endArrow=none;html=1;rounded=0;strokeWidth=3;" edge="1" parent="1">
          <mxGeometry width="50" height="50" relative="1" as="geometry">
            <mxPoint x="490" y="280" as="sourcePoint" />
            <mxPoint x="670" y="280" as="targetPoint" />
          </mxGeometry>
        </mxCell>
        <mxCell id="Jo2eLr0nHcPGZElzcF8N-47" value="" style="endArrow=none;html=1;rounded=0;exitX=0.5;exitY=0;exitDx=0;exitDy=0;strokeWidth=3;" edge="1" parent="1" source="Jo2eLr0nHcPGZElzcF8N-9">
          <mxGeometry width="50" height="50" relative="1" as="geometry">
            <mxPoint x="460" y="300" as="sourcePoint" />
            <mxPoint x="490" y="280" as="targetPoint" />
          </mxGeometry>
        </mxCell>
        <mxCell id="Jo2eLr0nHcPGZElzcF8N-48" value="" style="endArrow=none;html=1;rounded=0;exitX=0.5;exitY=0;exitDx=0;exitDy=0;strokeWidth=3;" edge="1" parent="1" source="Jo2eLr0nHcPGZElzcF8N-20">
          <mxGeometry width="50" height="50" relative="1" as="geometry">
            <mxPoint x="570" y="340" as="sourcePoint" />
            <mxPoint x="670" y="280" as="targetPoint" />
          </mxGeometry>
        </mxCell>
        <mxCell id="Jo2eLr0nHcPGZElzcF8N-49" value="" style="endArrow=none;html=1;rounded=0;entryX=0.5;entryY=1;entryDx=0;entryDy=0;strokeWidth=3;" edge="1" parent="1" target="Jo2eLr0nHcPGZElzcF8N-39">
          <mxGeometry width="50" height="50" relative="1" as="geometry">
            <mxPoint x="130" y="400" as="sourcePoint" />
            <mxPoint x="180" y="420" as="targetPoint" />
          </mxGeometry>
        </mxCell>
        <mxCell id="Jo2eLr0nHcPGZElzcF8N-50" value="" style="endArrow=none;html=1;rounded=0;entryX=0.5;entryY=1;entryDx=0;entryDy=0;exitX=0.5;exitY=0;exitDx=0;exitDy=0;strokeWidth=3;" edge="1" parent="1" source="Jo2eLr0nHcPGZElzcF8N-4" target="Jo2eLr0nHcPGZElzcF8N-40">
          <mxGeometry width="50" height="50" relative="1" as="geometry">
            <mxPoint x="270" y="430" as="sourcePoint" />
            <mxPoint x="320" y="380" as="targetPoint" />
          </mxGeometry>
        </mxCell>
        <mxCell id="Jo2eLr0nHcPGZElzcF8N-51" value="" style="endArrow=none;html=1;rounded=0;entryX=0.5;entryY=1;entryDx=0;entryDy=0;exitX=0.5;exitY=0;exitDx=0;exitDy=0;strokeWidth=3;" edge="1" parent="1" source="Jo2eLr0nHcPGZElzcF8N-5" target="Jo2eLr0nHcPGZElzcF8N-4">
          <mxGeometry width="50" height="50" relative="1" as="geometry">
            <mxPoint x="310" y="480" as="sourcePoint" />
            <mxPoint x="320" y="382" as="targetPoint" />
          </mxGeometry>
        </mxCell>
        <mxCell id="Jo2eLr0nHcPGZElzcF8N-52" value="" style="endArrow=none;html=1;rounded=0;entryX=0.5;entryY=1;entryDx=0;entryDy=0;exitX=0.5;exitY=0;exitDx=0;exitDy=0;strokeWidth=3;" edge="1" parent="1" source="Jo2eLr0nHcPGZElzcF8N-6" target="Jo2eLr0nHcPGZElzcF8N-5">
          <mxGeometry width="50" height="50" relative="1" as="geometry">
            <mxPoint x="260" y="620" as="sourcePoint" />
            <mxPoint x="310" y="570" as="targetPoint" />
          </mxGeometry>
        </mxCell>
        <mxCell id="Jo2eLr0nHcPGZElzcF8N-53" value="" style="endArrow=none;html=1;rounded=0;entryX=0.5;entryY=1;entryDx=0;entryDy=0;exitX=0.5;exitY=0;exitDx=0;exitDy=0;strokeWidth=3;" edge="1" parent="1" source="Jo2eLr0nHcPGZElzcF8N-19" target="Jo2eLr0nHcPGZElzcF8N-9">
          <mxGeometry width="50" height="50" relative="1" as="geometry">
            <mxPoint x="450" y="490" as="sourcePoint" />
            <mxPoint x="500" y="440" as="targetPoint" />
          </mxGeometry>
        </mxCell>
        <mxCell id="Jo2eLr0nHcPGZElzcF8N-54" value="" style="endArrow=none;html=1;rounded=0;entryX=0.5;entryY=1;entryDx=0;entryDy=0;exitX=0.5;exitY=0;exitDx=0;exitDy=0;strokeWidth=3;" edge="1" parent="1" source="Jo2eLr0nHcPGZElzcF8N-21" target="Jo2eLr0nHcPGZElzcF8N-20">
          <mxGeometry width="50" height="50" relative="1" as="geometry">
            <mxPoint x="570" y="450" as="sourcePoint" />
            <mxPoint x="620" y="400" as="targetPoint" />
          </mxGeometry>
        </mxCell>
        <mxCell id="Jo2eLr0nHcPGZElzcF8N-55" value="" style="endArrow=none;html=1;rounded=0;entryX=0.5;entryY=1;entryDx=0;entryDy=0;exitX=0.5;exitY=0;exitDx=0;exitDy=0;strokeWidth=3;" edge="1" parent="1" source="Jo2eLr0nHcPGZElzcF8N-22" target="Jo2eLr0nHcPGZElzcF8N-21">
          <mxGeometry width="50" height="50" relative="1" as="geometry">
            <mxPoint x="680" y="403" as="sourcePoint" />
            <mxPoint x="680" y="380" as="targetPoint" />
          </mxGeometry>
        </mxCell>
        <mxCell id="Jo2eLr0nHcPGZElzcF8N-56" value="" style="endArrow=none;html=1;rounded=0;entryX=0.5;entryY=1;entryDx=0;entryDy=0;strokeWidth=3;" edge="1" parent="1" target="Jo2eLr0nHcPGZElzcF8N-23">
          <mxGeometry width="50" height="50" relative="1" as="geometry">
            <mxPoint x="940" y="280" as="sourcePoint" />
            <mxPoint x="840" y="230" as="targetPoint" />
            <Array as="points" />
          </mxGeometry>
        </mxCell>
        <mxCell id="Jo2eLr0nHcPGZElzcF8N-57" value="" style="endArrow=none;html=1;rounded=0;strokeWidth=3;" edge="1" parent="1">
          <mxGeometry width="50" height="50" relative="1" as="geometry">
            <mxPoint x="850" y="280" as="sourcePoint" />
            <mxPoint x="1030" y="280" as="targetPoint" />
          </mxGeometry>
        </mxCell>
        <mxCell id="Jo2eLr0nHcPGZElzcF8N-58" value="" style="endArrow=none;html=1;rounded=0;strokeWidth=3;" edge="1" parent="1">
          <mxGeometry width="50" height="50" relative="1" as="geometry">
            <mxPoint x="1210" y="280" as="sourcePoint" />
            <mxPoint x="1390" y="280" as="targetPoint" />
          </mxGeometry>
        </mxCell>
        <mxCell id="Jo2eLr0nHcPGZElzcF8N-59" value="" style="endArrow=none;html=1;rounded=0;exitX=0.5;exitY=0;exitDx=0;exitDy=0;strokeWidth=3;" edge="1" parent="1" source="Jo2eLr0nHcPGZElzcF8N-24">
          <mxGeometry width="50" height="50" relative="1" as="geometry">
            <mxPoint x="790" y="280" as="sourcePoint" />
            <mxPoint x="850" y="280" as="targetPoint" />
          </mxGeometry>
        </mxCell>
        <mxCell id="Jo2eLr0nHcPGZElzcF8N-60" value="" style="endArrow=none;html=1;rounded=0;entryX=0.5;entryY=1;entryDx=0;entryDy=0;strokeWidth=3;" edge="1" parent="1" target="Jo2eLr0nHcPGZElzcF8N-29">
          <mxGeometry width="50" height="50" relative="1" as="geometry">
            <mxPoint x="1301" y="280" as="sourcePoint" />
            <mxPoint x="1330" y="290" as="targetPoint" />
          </mxGeometry>
        </mxCell>
        <mxCell id="Jo2eLr0nHcPGZElzcF8N-61" value="" style="endArrow=none;html=1;rounded=0;exitX=0.5;exitY=0;exitDx=0;exitDy=0;strokeWidth=3;" edge="1" parent="1" source="Jo2eLr0nHcPGZElzcF8N-8">
          <mxGeometry width="50" height="50" relative="1" as="geometry">
            <mxPoint x="1180" y="370" as="sourcePoint" />
            <mxPoint x="1210" y="280" as="targetPoint" />
          </mxGeometry>
        </mxCell>
        <mxCell id="Jo2eLr0nHcPGZElzcF8N-62" value="" style="endArrow=none;html=1;rounded=0;entryX=0.5;entryY=1;entryDx=0;entryDy=0;exitX=0.5;exitY=0;exitDx=0;exitDy=0;strokeWidth=3;" edge="1" parent="1" source="Jo2eLr0nHcPGZElzcF8N-11" target="Jo2eLr0nHcPGZElzcF8N-8">
          <mxGeometry width="50" height="50" relative="1" as="geometry">
            <mxPoint x="1180" y="440" as="sourcePoint" />
            <mxPoint x="1230" y="390" as="targetPoint" />
          </mxGeometry>
        </mxCell>
        <mxCell id="Jo2eLr0nHcPGZElzcF8N-63" value="" style="endArrow=none;html=1;rounded=0;exitX=0.5;exitY=0;exitDx=0;exitDy=0;strokeWidth=3;" edge="1" parent="1" source="Jo2eLr0nHcPGZElzcF8N-25">
          <mxGeometry width="50" height="50" relative="1" as="geometry">
            <mxPoint x="1030" y="300" as="sourcePoint" />
            <mxPoint x="1030" y="280" as="targetPoint" />
          </mxGeometry>
        </mxCell>
        <mxCell id="Jo2eLr0nHcPGZElzcF8N-64" value="" style="endArrow=none;html=1;rounded=0;entryX=0.5;entryY=1;entryDx=0;entryDy=0;exitX=0.5;exitY=0;exitDx=0;exitDy=0;strokeWidth=3;" edge="1" parent="1" source="Jo2eLr0nHcPGZElzcF8N-12" target="Jo2eLr0nHcPGZElzcF8N-11">
          <mxGeometry width="50" height="50" relative="1" as="geometry">
            <mxPoint x="1190" y="530" as="sourcePoint" />
            <mxPoint x="1240" y="480" as="targetPoint" />
          </mxGeometry>
        </mxCell>
        <mxCell id="Jo2eLr0nHcPGZElzcF8N-65" value="" style="endArrow=none;html=1;rounded=0;entryX=0.5;entryY=1;entryDx=0;entryDy=0;exitX=0.5;exitY=0;exitDx=0;exitDy=0;strokeWidth=3;" edge="1" parent="1" source="Jo2eLr0nHcPGZElzcF8N-13" target="Jo2eLr0nHcPGZElzcF8N-12">
          <mxGeometry width="50" height="50" relative="1" as="geometry">
            <mxPoint x="1180" y="610" as="sourcePoint" />
            <mxPoint x="1230" y="560" as="targetPoint" />
          </mxGeometry>
        </mxCell>
        <mxCell id="Jo2eLr0nHcPGZElzcF8N-66" value="" style="endArrow=none;html=1;rounded=0;entryX=0.5;entryY=1;entryDx=0;entryDy=0;exitX=0.5;exitY=0;exitDx=0;exitDy=0;strokeWidth=3;" edge="1" parent="1" source="Jo2eLr0nHcPGZElzcF8N-14" target="Jo2eLr0nHcPGZElzcF8N-10">
          <mxGeometry width="50" height="50" relative="1" as="geometry">
            <mxPoint x="1350" y="440" as="sourcePoint" />
            <mxPoint x="1400" y="390" as="targetPoint" />
          </mxGeometry>
        </mxCell>
        <mxCell id="Jo2eLr0nHcPGZElzcF8N-67" value="" style="endArrow=none;html=1;rounded=0;entryX=0.5;entryY=1;entryDx=0;entryDy=0;exitX=0.5;exitY=0;exitDx=0;exitDy=0;strokeWidth=3;" edge="1" parent="1" source="Jo2eLr0nHcPGZElzcF8N-26" target="Jo2eLr0nHcPGZElzcF8N-25">
          <mxGeometry width="50" height="50" relative="1" as="geometry">
            <mxPoint x="1110" y="450" as="sourcePoint" />
            <mxPoint x="1160" y="400" as="targetPoint" />
          </mxGeometry>
        </mxCell>
        <mxCell id="Jo2eLr0nHcPGZElzcF8N-68" value="" style="endArrow=none;html=1;rounded=0;entryX=0.5;entryY=1;entryDx=0;entryDy=0;exitX=0.5;exitY=0;exitDx=0;exitDy=0;strokeWidth=3;" edge="1" parent="1" source="Jo2eLr0nHcPGZElzcF8N-15" target="Jo2eLr0nHcPGZElzcF8N-14">
          <mxGeometry width="50" height="50" relative="1" as="geometry">
            <mxPoint x="1390" y="480" as="sourcePoint" />
            <mxPoint x="1410" y="480" as="targetPoint" />
          </mxGeometry>
        </mxCell>
        <mxCell id="Jo2eLr0nHcPGZElzcF8N-69" value="" style="endArrow=none;html=1;rounded=0;entryX=0.5;entryY=1;entryDx=0;entryDy=0;exitX=0.5;exitY=0;exitDx=0;exitDy=0;strokeWidth=3;" edge="1" parent="1" source="Jo2eLr0nHcPGZElzcF8N-27" target="Jo2eLr0nHcPGZElzcF8N-26">
          <mxGeometry width="50" height="50" relative="1" as="geometry">
            <mxPoint x="1110" y="450" as="sourcePoint" />
            <mxPoint x="1160" y="400" as="targetPoint" />
          </mxGeometry>
        </mxCell>
        <mxCell id="Jo2eLr0nHcPGZElzcF8N-70" value="" style="endArrow=none;html=1;rounded=0;exitX=0.5;exitY=0;exitDx=0;exitDy=0;entryX=0.5;entryY=1;entryDx=0;entryDy=0;strokeWidth=3;" edge="1" parent="1" source="Jo2eLr0nHcPGZElzcF8N-16" target="Jo2eLr0nHcPGZElzcF8N-15">
          <mxGeometry width="50" height="50" relative="1" as="geometry">
            <mxPoint x="1330" y="610" as="sourcePoint" />
            <mxPoint x="1390" y="540" as="targetPoint" />
          </mxGeometry>
        </mxCell>
        <mxCell id="Jo2eLr0nHcPGZElzcF8N-71" value="" style="endArrow=none;html=1;rounded=0;exitX=0.5;exitY=1;exitDx=0;exitDy=0;entryX=0.5;entryY=0;entryDx=0;entryDy=0;strokeWidth=3;" edge="1" parent="1" source="Jo2eLr0nHcPGZElzcF8N-27" target="Jo2eLr0nHcPGZElzcF8N-28">
          <mxGeometry width="50" height="50" relative="1" as="geometry">
            <mxPoint x="1110" y="450" as="sourcePoint" />
            <mxPoint x="1160" y="400" as="targetPoint" />
          </mxGeometry>
        </mxCell>
        <mxCell id="Jo2eLr0nHcPGZElzcF8N-72" value="" style="endArrow=none;html=1;rounded=0;entryX=0.5;entryY=1;entryDx=0;entryDy=0;strokeWidth=3;" edge="1" parent="1" target="Jo2eLr0nHcPGZElzcF8N-30">
          <mxGeometry width="50" height="50" relative="1" as="geometry">
            <mxPoint x="1660" y="280" as="sourcePoint" />
            <mxPoint x="1690" y="400" as="targetPoint" />
          </mxGeometry>
        </mxCell>
        <mxCell id="Jo2eLr0nHcPGZElzcF8N-73" value="" style="endArrow=none;html=1;rounded=0;exitX=0.5;exitY=0;exitDx=0;exitDy=0;strokeWidth=3;" edge="1" parent="1" source="Jo2eLr0nHcPGZElzcF8N-10">
          <mxGeometry width="50" height="50" relative="1" as="geometry">
            <mxPoint x="1290" y="350" as="sourcePoint" />
            <mxPoint x="1390" y="280" as="targetPoint" />
          </mxGeometry>
        </mxCell>
        <mxCell id="Jo2eLr0nHcPGZElzcF8N-74" value="" style="endArrow=none;html=1;rounded=0;strokeWidth=3;" edge="1" parent="1">
          <mxGeometry width="50" height="50" relative="1" as="geometry">
            <mxPoint x="1660" y="280" as="sourcePoint" />
            <mxPoint x="1750" y="280" as="targetPoint" />
          </mxGeometry>
        </mxCell>
        <mxCell id="Jo2eLr0nHcPGZElzcF8N-75" value="" style="endArrow=none;html=1;rounded=0;strokeWidth=3;" edge="1" parent="1">
          <mxGeometry width="50" height="50" relative="1" as="geometry">
            <mxPoint x="1570" y="280" as="sourcePoint" />
            <mxPoint x="1660" y="280" as="targetPoint" />
          </mxGeometry>
        </mxCell>
        <mxCell id="Jo2eLr0nHcPGZElzcF8N-76" value="" style="endArrow=none;html=1;rounded=0;exitX=0.5;exitY=0;exitDx=0;exitDy=0;strokeWidth=3;" edge="1" parent="1" source="Jo2eLr0nHcPGZElzcF8N-18">
          <mxGeometry width="50" height="50" relative="1" as="geometry">
            <mxPoint x="1640" y="360" as="sourcePoint" />
            <mxPoint x="1750" y="280" as="targetPoint" />
          </mxGeometry>
        </mxCell>
        <mxCell id="Jo2eLr0nHcPGZElzcF8N-77" value="" style="endArrow=none;html=1;rounded=0;exitX=0.5;exitY=0;exitDx=0;exitDy=0;strokeWidth=3;" edge="1" parent="1" source="Jo2eLr0nHcPGZElzcF8N-17">
          <mxGeometry width="50" height="50" relative="1" as="geometry">
            <mxPoint x="1640" y="360" as="sourcePoint" />
            <mxPoint x="1570" y="280" as="targetPoint" />
          </mxGeometry>
        </mxCell>
        <mxCell id="Jo2eLr0nHcPGZElzcF8N-78" value="Github repo" style="rounded=1;whiteSpace=wrap;html=1;fillColor=#666699;strokeColor=#23445d;" vertex="1" parent="1">
          <mxGeometry x="70" y="490" width="120" height="60" as="geometry" />
        </mxCell>
        <mxCell id="Jo2eLr0nHcPGZElzcF8N-79" value="" style="endArrow=none;html=1;rounded=0;entryX=0.5;entryY=1;entryDx=0;entryDy=0;strokeWidth=3;" edge="1" parent="1">
          <mxGeometry width="50" height="50" relative="1" as="geometry">
            <mxPoint x="130" y="490" as="sourcePoint" />
            <mxPoint x="130" y="460" as="targetPoint" />
          </mxGeometry>
        </mxCell>
        <mxCell id="Jo2eLr0nHcPGZElzcF8N-80" value="Påbegynd Kodeskrivning" style="rounded=1;whiteSpace=wrap;html=1;fillColor=#666699;strokeColor=#23445d;" vertex="1" parent="1">
          <mxGeometry x="610" y="570" width="120" height="60" as="geometry" />
        </mxCell>
        <mxCell id="Jo2eLr0nHcPGZElzcF8N-81" value="" style="endArrow=none;html=1;rounded=0;entryX=0.5;entryY=1;entryDx=0;entryDy=0;strokeWidth=3;" edge="1" parent="1">
          <mxGeometry width="50" height="50" relative="1" as="geometry">
            <mxPoint x="670" y="570" as="sourcePoint" />
            <mxPoint x="670" y="540" as="targetPoint" />
          </mxGeometry>
        </mxCell>
      </root>
    </mxGraphModel>
  </diagram>
</mxfile>
